<svg xmlns="http://www.w3.org/2000/svg" width="24" height="22" viewBox="0 0 24 22" fill="none"><path fill-rule="evenodd" clip-rule="evenodd" d="M11.7584 12.5869C11.0336 12.5869 10.3111 12.3474 9.70654 11.8686L4.84779 7.95128C4.49787 7.66962 4.44371 7.1572 4.72429 6.80837C5.00704 6.46062 5.51837 6.40537 5.86721 6.68595L10.7216 10.5989C11.3316 11.0821 12.1906 11.0821 12.8049 10.5946L17.6106 6.68812C17.9594 6.4032 18.4707 6.45737 18.7546 6.8062C19.0373 7.15395 18.9842 7.66528 18.6365 7.94912L13.8221 11.8621C13.2133 12.3453 12.4853 12.5869 11.7584 12.5869Z" fill="#E1E1E1"></path><path fill-rule="evenodd" clip-rule="evenodd" d="M17.0472 19.6667C17.0493 19.6645 17.058 19.6667 17.0645 19.6667C18.3006 19.6667 19.3969 19.2247 20.2376 18.3851C21.2137 17.4133 21.7499 16.0169 21.7499 14.4537V7.01333C21.7499 3.98758 19.7718 1.79166 17.0472 1.79166H6.411C3.68642 1.79166 1.70825 3.98758 1.70825 7.01333V14.4537C1.70825 16.0169 2.24558 17.4133 3.22058 18.3851C4.06125 19.2247 5.15867 19.6667 6.39367 19.6667H17.0472ZM6.39042 21.2917C4.71883 21.2917 3.226 20.685 2.07334 19.5367C0.789585 18.2562 0.083252 16.4513 0.083252 14.4537V7.01333C0.083252 3.11008 2.8035 0.166664 6.411 0.166664H17.0472C20.6547 0.166664 23.3749 3.11008 23.3749 7.01333V14.4537C23.3749 16.4513 22.6686 18.2562 21.3848 19.5367C20.2333 20.6839 18.7393 21.2917 17.0645 21.2917H6.39042Z" fill="#050B20"></path></svg>