<svg xmlns="http://www.w3.org/2000/svg" width="26" height="26" viewBox="0 0 26 26" fill="none"><path d="M23.5126 10.9886C23.1042 10.9886 22.7532 10.682 22.7066 10.2671C22.2949 6.60979 19.4533 3.77145 15.796 3.3652C15.3507 3.31537 15.029 2.91454 15.0788 2.4682C15.1276 2.02295 15.5273 1.69037 15.9758 1.75103C20.3926 2.2407 23.8246 5.66837 24.3207 10.0851C24.3717 10.5315 24.0499 10.9333 23.6047 10.9832C23.5743 10.9864 23.5429 10.9886 23.5126 10.9886Z" fill="#E1E1E1"></path><path d="M19.676 11.0003C19.2947 11.0003 18.9556 10.7316 18.8798 10.3438C18.5678 8.74044 17.3317 7.50436 15.7305 7.19344C15.2896 7.10786 15.0025 6.68211 15.0881 6.24119C15.1737 5.80027 15.6103 5.51319 16.0403 5.59877C18.2948 6.03644 20.0357 7.77628 20.4744 10.0318C20.56 10.4738 20.2729 10.8995 19.8331 10.9851C19.78 10.9949 19.728 11.0003 19.676 11.0003Z" fill="#E1E1E1"></path><path fill-rule="evenodd" clip-rule="evenodd" d="M8.10554 17.8102C13.2113 22.9171 16.6108 24.2561 18.758 24.2561C19.8175 24.2561 20.5737 23.93 21.0774 23.5681C21.1002 23.5551 23.4315 22.1295 23.8399 19.9715C24.0328 18.9586 23.7511 17.9565 23.0274 17.0725C20.0461 13.4531 18.5273 13.7911 16.8503 14.6068C15.82 15.1116 15.0064 15.5038 12.7087 13.2082C10.4122 10.9108 10.8084 10.0971 11.3099 9.06703C12.1267 7.39003 12.4628 5.87083 8.84221 2.88733C7.96038 2.16692 6.96479 1.88525 5.95296 2.07483C3.82638 2.47242 2.39421 4.76583 2.39421 4.76583C1.25454 6.36592 0.481047 10.1868 8.10554 17.8102ZM6.28446 3.66517C6.37979 3.65 6.47404 3.64133 6.56721 3.64133C6.99188 3.64133 7.40138 3.80708 7.80979 4.14292C10.7294 6.54789 10.36 7.30624 9.84864 8.35598C9.08055 9.93439 8.67863 11.4749 11.5593 14.3576C14.4431 17.2404 15.9847 16.8385 17.5609 16.0682L17.5635 16.0669C18.612 15.5573 19.37 15.1889 21.7718 18.1049C22.1824 18.6054 22.3395 19.1059 22.2507 19.6335C22.0459 20.8468 20.6354 21.9334 20.2086 22.1977C18.68 23.2876 14.9999 22.4068 9.25388 16.6619C3.51004 10.917 2.62821 7.23692 3.75704 5.64983C3.98238 5.28258 5.07329 3.86992 6.28446 3.66517Z" fill="#050B20"></path></svg>