<svg xmlns="http://www.w3.org/2000/svg" width="30" height="42" viewBox="0 0 30 42" fill="none"><path d="M23.3333 0.6875H6.66667C3.50625 0.6875 0.9375 3.25625 0.9375 6.41667V35.5833C0.9375 38.7437 3.50625 41.3125 6.66667 41.3125H23.3333C26.4937 41.3125 29.0625 38.7437 29.0625 35.5833V6.41667C29.0625 3.25625 26.4937 0.6875 23.3333 0.6875ZM25.9375 35.5833C25.9375 37.0187 24.7687 38.1875 23.3333 38.1875H6.66667C5.23125 38.1875 4.0625 37.0187 4.0625 35.5833V6.41667C4.0625 4.98125 5.23125 3.8125 6.66667 3.8125H23.3333C24.7687 3.8125 25.9375 4.98125 25.9375 6.41667V35.5833ZM18.6458 8.5C18.6458 9.3625 17.9458 10.0625 17.0833 10.0625H12.9167C12.0542 10.0625 11.3542 9.3625 11.3542 8.5C11.3542 7.6375 12.0542 6.9375 12.9167 6.9375H17.0833C17.9458 6.9375 18.6458 7.6375 18.6458 8.5Z" fill="white"></path></svg>