<svg xmlns="http://www.w3.org/2000/svg" width="94" height="94" viewBox="0 0 94 94" fill="none"><path d="M14.9196 38.7086C14.9196 21.1656 27.812 6.63367 44.639 4.07065C42.9043 3.80629 41.1275 3.66925 39.3189 3.66925C19.9671 3.66925 4.2793 19.3571 4.2793 38.7088C4.2793 58.0606 19.9671 73.7484 39.3189 73.7484C41.1275 73.7484 42.9043 73.6112 44.639 73.3468C27.8121 70.7836 14.9196 56.2519 14.9196 38.7086Z" fill="white" fill-opacity="0.2"></path><path d="M38.7448 77.4173C17.4007 77.4173 0.0361328 60.0527 0.0361328 38.7086C0.0361328 17.3646 17.4007 0 38.7448 0C60.0888 0 77.4534 17.3646 77.4534 38.7086C77.4534 60.0527 60.0888 77.4173 38.7448 77.4173ZM38.7448 7.33813C21.447 7.33813 7.37426 21.4108 7.37426 38.7086C7.37426 56.0065 21.447 70.0792 38.7448 70.0792C56.0426 70.0792 70.1153 56.0065 70.1153 38.7086C70.1153 21.4108 56.0426 7.33813 38.7448 7.33813Z" fill="#405FF2"></path><path d="M90.2951 94C89.3562 94 88.4171 93.6419 87.7005 92.9255L71.2815 76.5064C69.8487 75.0735 69.8487 72.7502 71.2815 71.3175C72.7144 69.8845 75.0377 69.8845 76.4704 71.3175L92.8895 87.7365C94.3223 89.1695 94.3223 91.4927 92.8895 92.9255C92.1731 93.6417 91.234 94 90.2951 94ZM43.1749 49.0978L57.6745 34.5072C59.1029 33.0698 59.0956 30.7468 57.6582 29.3184C56.2212 27.8902 53.8982 27.897 52.4694 29.3347L37.9669 43.9284C37.1988 44.703 36.1799 45.1297 35.0979 45.1297C34.0158 45.1297 32.9969 44.703 32.229 43.9284L25.2062 36.8449C23.7795 35.4059 21.4565 35.3957 20.0174 36.8226C18.5784 38.2493 18.5685 40.5723 19.9951 42.0114L27.018 49.0948C29.1747 51.2699 32.0441 52.4676 35.098 52.4676C38.152 52.4676 41.0214 51.2699 43.1749 49.0978Z" fill="white"></path></svg>