<svg xmlns="http://www.w3.org/2000/svg" width="60" height="61" viewBox="0 0 60 61" fill="none"><path d="M23.5465 5.14551C19.8452 5.14551 16.4904 7.3232 14.9836 10.7038L8.88656 24.383C5.23148 24.6341 2.34375 27.6767 2.34375 31.3955V36.7861C2.34375 40.0221 4.96711 42.6455 8.20312 42.6455H9.80918C9.81785 42.1946 9.82934 41.7438 9.84375 41.2929C9.4623 40.5154 9.24727 39.6414 9.24727 38.7169L9.14062 34.5596C9.14062 31.485 9.76617 30.3018 12.0483 29.8421C13.1331 29.6235 14.0413 28.8844 14.4858 27.871L22.0148 10.7038C23.5215 7.3232 26.8764 5.14551 30.5777 5.14551H23.5465Z" fill="white" fill-opacity="0.1"></path><path d="M8.20312 42.6455C4.96711 42.6455 2.34375 40.0221 2.34375 36.7861V31.3955C2.34375 27.6767 5.23148 24.6341 8.88656 24.383L14.9836 10.7038C16.4903 7.3232 19.8451 5.14551 23.5465 5.14551H34.2217C37.7441 5.14551 40.9692 7.11988 42.5711 10.257L45.5859 16.1611M57.6562 31.3955C57.6562 27.5123 54.5082 24.3643 50.625 24.3643H18.6328M28.2422 16.1611V5.2627M32.4609 42.6455H27.1873M20.742 37.958C18.1532 37.958 16.0545 40.0567 16.0545 42.6455C16.0545 45.2343 18.1532 47.333 20.742 47.333C23.3307 47.333 25.4295 45.2343 25.4295 42.6455C25.4295 40.0567 23.3309 37.958 20.742 37.958Z" stroke="white" stroke-width="3" stroke-miterlimit="10" stroke-linecap="round" stroke-linejoin="round"></path><path d="M57.6562 42.2939C57.6562 46.7921 54.0098 50.4971 49.5117 50.4971C45.0136 50.4971 41.3672 46.8507 41.3672 42.3525C41.3672 37.8544 45.0722 34.208 49.5703 34.208M43.5352 48.7979L36.0938 56.2393" stroke="white" stroke-width="3" stroke-miterlimit="10" stroke-linecap="round" stroke-linejoin="round"></path></svg>