<svg xmlns="http://www.w3.org/2000/svg" width="20" height="22" viewBox="0 0 20 22" fill="none"><path fill-rule="evenodd" clip-rule="evenodd" d="M9.99992 2.0625C5.67871 2.0625 2.14575 5.64734 2.14575 10.1068C2.14575 12.3555 3.04517 14.8458 4.5169 16.7689C5.99243 18.697 7.94538 19.9375 9.99992 19.9375C12.0545 19.9375 14.0074 18.697 15.483 16.7689C16.9547 14.8458 17.8541 12.3555 17.8541 10.1068C17.8541 5.64734 14.3211 2.0625 9.99992 2.0625ZM0.520752 10.1068C0.520752 4.78329 4.74819 0.4375 9.99992 0.4375C15.2516 0.4375 19.4791 4.78329 19.4791 10.1068C19.4791 12.7496 18.4384 15.5809 16.7735 17.7564C15.1123 19.9271 12.7319 21.5625 9.99992 21.5625C7.26799 21.5625 4.8876 19.9271 3.22642 17.7564C1.56143 15.5809 0.520752 12.7496 0.520752 10.1068Z" fill="#050B20"></path><path fill-rule="evenodd" clip-rule="evenodd" d="M6.479 9.375C6.479 7.4305 8.05536 5.85417 9.99984 5.85417C11.9443 5.85417 13.5207 7.4305 13.5207 9.375C13.5207 11.3195 11.9443 12.8958 9.99984 12.8958C8.05536 12.8958 6.479 11.3195 6.479 9.375ZM9.99984 7.47917C8.9528 7.47917 8.104 8.32796 8.104 9.375C8.104 10.422 8.9528 11.2708 9.99984 11.2708C11.0469 11.2708 11.8957 10.422 11.8957 9.375C11.8957 8.32796 11.0469 7.47917 9.99984 7.47917Z" fill="#E1E1E1"></path></svg>